<svg width="50" height="50" viewBox="0 0 50 50" fill="none" xmlns="http://www.w3.org/2000/svg">
<path fill-rule="evenodd" clip-rule="evenodd" d="M28.4829 16.6291C26.5284 17.3403 25.2933 19.1746 25.4336 21.1821L25.4806 21.9567L24.6985 21.8619C21.853 21.4985 19.3664 20.2657 17.2553 18.194L16.2232 17.1664L15.9575 17.9254C15.3948 19.6172 15.7545 21.4037 16.9269 22.6052C17.5523 23.2694 17.4112 23.3642 16.3329 22.9687C15.9575 22.8425 15.6291 22.7478 15.5978 22.7948C15.4888 22.906 15.8635 24.344 16.1605 24.9134C16.5672 25.7045 17.3956 26.4784 18.303 26.9373L19.0694 27.3007L18.1627 27.3164C17.2873 27.3164 17.256 27.3321 17.35 27.6649C17.6627 28.6925 18.8978 29.7836 20.2739 30.2582L21.2433 30.5896L20.3993 31.0955C19.1485 31.8239 17.6784 32.2343 16.2082 32.2649C15.5038 32.2806 14.9254 32.344 14.9254 32.3918C14.9254 32.5493 16.8336 33.4343 17.9433 33.7828C21.2739 34.8104 25.2306 34.3672 28.2015 32.6127C30.3127 31.3634 32.4232 28.8813 33.409 26.4776C33.9411 25.1978 34.4724 22.8575 34.4724 21.7358C34.4724 21.0082 34.5194 20.9134 35.3948 20.044C35.9112 19.5381 36.3956 18.9851 36.4896 18.8269C36.6463 18.5261 36.6299 18.5261 35.8329 18.7948C34.5038 19.2694 34.3157 19.206 34.9732 18.4948C35.4575 17.9888 36.0366 17.0716 36.0366 16.803C36.0366 16.756 35.8023 16.8343 35.5359 16.9769C35.2545 17.1351 34.6291 17.3724 34.1597 17.5142L33.3157 17.7836L32.5493 17.2612C32.1269 16.9769 31.5336 16.6604 31.2202 16.5657C30.4224 16.3448 29.2023 16.3761 28.4829 16.6291ZM25.3732 47.7612C13.009 47.7612 2.98511 37.7373 2.98511 25.3731C2.98511 13.0082 13.009 2.98508 25.3732 2.98508C37.7373 2.98508 47.7612 13.0082 47.7612 25.3731C47.7612 37.7373 37.7373 47.7612 25.3732 47.7612Z" fill="#50ABEA"/>
</svg>
